<svg version="1.1" id="Layer_1" xmlns="http://www.w3.org/2000/svg" xmlns:xlink="http://www.w3.org/1999/xlink" x="0px" y="0px"
	 width="100%" viewBox="0 0 500 500" enable-background="new 0 0 500 500" xml:space="preserve">
<path fill="#000000" opacity="1.000000" stroke="none" 
	d="
M462.000000,501.000000 
	C308.000031,501.000000 154.500076,501.000000 1.000082,501.000000 
	C1.000055,334.333405 1.000055,167.666824 1.000027,1.000172 
	C167.666550,1.000115 334.333099,1.000115 500.999756,1.000057 
	C500.999817,167.666519 500.999817,334.333038 500.999908,500.999756 
	C488.166656,501.000000 475.333344,501.000000 462.000000,501.000000 
M381.957153,222.440811 
	C381.646820,222.240479 381.336517,222.040131 381.023132,221.975769 
	C381.023132,221.975769 381.159058,221.971283 380.955536,221.442932 
	C380.645294,221.242493 380.335083,221.042038 380.020172,220.979126 
	C380.020172,220.979126 380.157776,220.977219 379.952911,220.440491 
	C379.644684,220.223618 379.336487,220.006760 378.957520,219.361252 
	C378.795380,219.078369 378.551636,218.947983 377.851837,218.291519 
	C373.060669,215.679672 368.374817,215.427521 363.958344,218.943054 
	C363.958344,218.943054 363.969696,218.837830 363.438019,219.037537 
	C363.237366,219.348785 363.036743,219.660049 362.973572,219.973450 
	C362.973572,219.973450 362.967377,219.836090 362.438660,220.040329 
	C362.239594,220.351562 362.040497,220.662796 361.947388,220.964615 
	C361.947388,220.964615 361.923889,220.860855 361.313934,221.129807 
	C360.828827,222.066986 360.343719,223.004150 359.960449,223.954758 
	C359.960449,223.954758 359.960449,223.852066 359.450348,224.049927 
	C359.348358,224.363068 359.246368,224.676193 358.814789,225.646912 
	C358.262421,225.563782 357.455078,225.684845 357.198700,225.364700 
	C355.407715,223.128372 354.127045,220.233597 351.896606,218.674988 
	C349.980957,217.336380 346.529846,216.402878 344.645844,217.254669 
	C342.164185,218.376648 340.551239,221.420120 338.243622,223.995956 
	C336.065155,222.518402 333.464600,220.754517 330.736725,218.234558 
	C329.099670,218.476105 327.462585,218.717651 325.403412,218.966431 
	C325.403412,218.966431 325.012756,219.126419 324.366516,219.000748 
	C323.865417,219.309311 323.364288,219.617889 322.946503,219.933426 
	C322.946503,219.933426 322.934540,219.850677 322.281677,219.980591 
	C321.472382,220.624222 320.663055,221.267838 319.943054,221.928864 
	C319.943054,221.928864 319.940125,221.837891 319.401459,222.045868 
	C319.304993,222.381454 319.208496,222.717056 318.961609,223.413452 
	C318.961609,223.413452 318.970673,223.804230 318.348358,224.102951 
	C317.942322,225.081177 317.536316,226.059402 316.971161,227.404922 
	C316.971161,227.404922 316.971008,227.805191 316.431854,228.023834 
	C316.218536,228.339417 316.005219,228.654999 315.190155,228.679611 
	C314.965363,228.439499 314.754181,228.184753 314.513763,227.961456 
	C311.271393,224.949921 308.306000,221.536758 304.704163,219.043442 
	C300.738251,216.298096 296.329834,215.847977 292.369904,219.747299 
	C292.014771,220.096985 290.551880,219.590912 289.756836,219.183167 
	C281.490051,214.943298 277.010590,216.177032 272.713318,224.347000 
	C272.345581,223.354660 272.098419,222.687759 271.987915,221.313690 
	C271.016357,219.829407 270.044830,218.345139 269.055603,216.962158 
	C269.055603,216.962158 269.158386,216.964920 268.956116,216.440918 
	C268.649811,216.238968 268.343475,216.037003 268.038177,215.939880 
	C268.038177,215.939880 268.141663,215.923141 267.867950,215.333984 
	C267.250397,215.163742 266.632843,214.993484 266.018982,214.941986 
	C266.018982,214.941986 266.136658,214.925690 265.739990,214.213425 
	C263.115631,214.786362 260.491302,215.359283 257.966888,215.948761 
	C257.966888,215.948761 257.969879,215.847488 257.448822,216.048248 
	C257.256134,216.354843 257.063446,216.661438 256.204468,217.241852 
	C254.752243,220.413589 253.300049,223.585342 251.798172,226.865555 
	C250.903259,225.690353 249.878281,224.344376 248.929626,222.452545 
	C248.632416,222.251633 248.335190,222.050705 248.028946,221.973404 
	C248.028946,221.973404 248.152908,221.973602 247.950180,221.446869 
	C247.641220,221.246323 247.332260,221.045761 247.020645,220.977509 
	C247.020645,220.977509 247.152908,220.973389 246.950150,220.446564 
	C246.641388,220.245331 246.332611,220.044098 246.021194,219.976379 
	C246.021194,219.976379 246.154648,219.971924 245.952667,219.444382 
	C245.644058,219.242035 245.335434,219.039673 245.031738,218.946030 
	C245.031738,218.946030 245.138931,218.927322 244.804016,218.270691 
	C243.198959,217.892426 241.593903,217.514160 239.603531,216.967178 
	C239.603531,216.967178 239.183289,216.949066 238.954895,216.405762 
	C238.575851,216.586990 238.196823,216.768219 237.390320,216.967880 
	C237.390320,216.967880 236.996597,217.135345 236.285385,217.012604 
	C235.480103,217.319122 234.674805,217.625656 233.952011,217.936829 
	C233.952011,217.936829 233.939209,217.855194 233.245514,217.997986 
	C231.781250,218.969513 230.316971,219.941055 228.943863,220.929260 
	C228.943863,220.929260 228.940369,220.836670 228.402573,221.045029 
	C228.305466,221.380081 228.208374,221.715134 227.960876,222.417496 
	C227.960876,222.417496 227.970215,222.814285 227.452011,223.047897 
	C227.248505,223.359299 227.044998,223.670700 226.969421,223.977890 
	C226.969421,223.977890 226.956772,223.850525 226.436554,224.044495 
	C226.333160,224.363342 226.229752,224.682175 225.817627,225.660599 
	C224.927307,227.070206 224.036987,228.479813 223.053604,230.036743 
	C221.645081,228.344894 220.258194,226.679031 218.954437,224.458237 
	C218.653915,224.252060 218.353394,224.045898 218.050354,223.934097 
	C218.050354,223.934097 218.143387,223.918106 217.854858,223.292175 
	C215.250259,221.470886 212.645645,219.649597 210.031906,217.931458 
	C210.031906,217.931458 210.135239,217.924728 209.740280,217.209229 
	C204.677307,215.767532 199.638641,214.808411 194.412354,217.958237 
	C194.412354,217.958237 194.046921,218.107895 193.477158,218.020401 
	C193.264893,218.326843 193.052643,218.633286 192.957672,218.954956 
	C192.957672,218.954956 192.959061,218.836700 192.426880,219.027924 
	C192.229462,219.338654 192.032043,219.649399 191.964569,219.969193 
	C191.964569,219.969193 191.963135,219.838959 191.432251,220.034225 
	C191.234329,220.344955 191.036407,220.655685 190.971420,220.971710 
	C190.971420,220.971710 190.967728,220.838715 190.438919,221.040543 
	C190.236725,221.349869 190.034515,221.659210 189.949768,221.961838 
	C189.949768,221.961838 189.929016,221.846039 189.097809,221.965546 
	C185.663147,221.966110 182.228485,221.966675 178.396606,221.959167 
	C178.396606,221.959167 178.031677,222.116257 177.467804,222.042801 
	C177.258865,222.346954 177.049911,222.651123 176.968292,222.965637 
	C176.968292,222.965637 176.968170,222.837891 176.438065,223.039200 
	C176.238770,223.350479 176.039474,223.661743 175.975037,223.976089 
	C175.975037,223.976089 175.970337,223.841263 175.438461,224.039307 
	C175.238449,224.350662 175.038422,224.662018 174.973083,224.969818 
	C174.973083,224.969818 174.960541,224.835663 174.428497,225.026978 
	C174.230179,225.337006 174.031860,225.647018 173.970093,225.967667 
	C173.970093,225.967667 173.970871,225.830673 173.514435,225.975922 
	C173.514435,225.975922 173.043182,225.890244 173.003265,225.410110 
	C173.003265,225.410110 172.837357,224.957794 172.977982,224.242889 
	C172.662155,223.425354 172.346329,222.607803 171.875214,221.265823 
	C171.539734,220.848251 171.204269,220.430679 170.939529,219.459610 
	C170.640854,219.252213 170.342178,219.044815 170.043549,218.938629 
	C170.043549,218.938629 170.143326,218.921783 169.806580,218.229385 
	C165.732040,214.992477 161.310928,215.339722 156.339371,217.050751 
	C156.059540,217.219101 155.935394,217.465805 155.444016,218.036072 
	C155.228546,218.347717 155.013077,218.659363 154.359650,219.048050 
	C154.072021,219.217026 153.940948,219.467804 153.368408,220.093369 
	C153.200668,220.720917 153.032928,221.348465 152.220001,222.259155 
	C151.777542,223.490402 151.335098,224.721634 151.126266,225.302750 
	C147.857651,222.722427 144.854706,220.351822 141.917908,217.443771 
	C141.608948,217.339294 141.299973,217.234818 140.619385,216.962555 
	C140.619385,216.962555 140.211792,216.974045 139.780121,216.236740 
	C137.990219,216.080093 136.031586,216.337357 134.441940,215.689423 
	C129.624115,213.725677 126.029167,215.377502 122.954079,218.940186 
	C122.954079,218.940186 122.964073,218.837540 122.431702,219.031906 
	C122.233498,219.343262 122.035294,219.654602 121.962250,219.963181 
	C121.962250,219.963181 121.947723,219.838837 121.417221,220.042313 
	C121.323853,220.369720 121.230492,220.697113 120.848885,221.649216 
	C120.221008,223.042313 119.593124,224.435410 118.305496,226.143494 
	C118.248573,227.094009 118.191650,228.044510 117.970612,229.382248 
	C117.970612,229.382248 117.977791,229.802750 117.221138,230.238968 
	C116.892159,232.960144 116.266289,235.684235 116.293121,238.401901 
	C116.358269,245.001862 116.726868,251.598846 116.967995,258.603943 
	C116.967995,258.603943 117.130745,258.976959 117.003891,259.647064 
	C117.647820,260.476471 118.291740,261.305847 118.942192,262.048431 
	C118.942192,262.048431 118.855743,262.058716 118.987877,262.759674 
	C119.971939,263.554779 120.956001,264.349915 121.954506,265.040039 
	C121.954506,265.040039 121.848557,265.039185 122.051498,265.558075 
	C122.372009,265.661560 122.692513,265.765076 123.398109,266.031616 
	C123.398109,266.031616 123.816238,266.024719 124.042061,266.545319 
	C124.368301,266.653198 124.694542,266.761108 125.409927,267.033691 
	C125.409927,267.033691 125.832352,267.044373 126.042915,267.563202 
	C126.361153,267.656433 126.679390,267.749634 127.844063,268.002502 
	C132.952957,268.014679 138.061844,268.026855 143.614563,268.023743 
	C143.614563,268.023743 144.025253,267.854767 144.746353,267.980774 
	C145.567749,267.663788 146.389145,267.346802 147.593658,267.040039 
	C147.593658,267.040039 147.945984,266.889191 148.534637,266.968658 
	C148.761719,266.655151 148.988815,266.341644 149.595016,266.041260 
	C149.595016,266.041260 149.942993,265.890259 150.517639,265.978912 
	C150.731827,265.670105 150.946014,265.361298 151.033569,265.030731 
	C151.033569,265.030731 151.021744,265.158691 151.559891,264.955505 
	C151.774750,264.645905 151.989624,264.336334 152.830719,263.788544 
	C154.007401,262.210327 155.184082,260.632141 156.338730,259.083496 
	C158.131241,260.651794 159.493454,261.843628 161.054871,263.555969 
	C161.360382,263.754822 161.665878,263.953705 161.969131,264.052032 
	C161.969131,264.052032 161.869751,264.067596 162.148773,264.682770 
	C163.411224,265.501556 164.673660,266.320312 165.948944,267.059723 
	C165.948944,267.059723 165.868988,267.068359 166.133484,267.660187 
	C166.748703,267.832703 167.363937,268.005249 167.977676,268.060913 
	C167.977676,268.060913 167.861786,268.075897 168.310165,268.819916 
	C172.604187,268.224335 176.898224,267.628723 181.586548,267.037109 
	C181.586548,267.037109 181.951797,266.888550 182.538208,266.969635 
	C182.765152,266.657440 182.992096,266.345276 183.652283,265.949310 
	C183.936035,265.778961 184.063858,265.528900 184.554749,264.962524 
	C184.755463,264.648743 184.956192,264.334930 185.032242,264.028961 
	C185.032242,264.028961 185.049728,264.152649 185.578537,263.952240 
	C185.677094,263.625580 185.775665,263.298889 186.130676,262.407501 
	C187.124008,262.596924 188.117325,262.786346 189.039215,263.548828 
	C189.366348,263.662109 189.693481,263.775421 190.403061,264.038513 
	C190.403061,264.038513 190.813751,264.031647 191.041199,264.554718 
	C191.354202,264.757660 191.667221,264.960602 191.974533,265.031952 
	C191.974533,265.031952 191.843689,265.046814 192.043381,265.574188 
	C192.368439,265.675873 192.693512,265.777557 193.401169,266.034271 
	C193.401169,266.034271 193.813980,266.034210 194.191040,266.719269 
	C198.117889,267.542175 202.044739,268.365051 205.961960,269.583374 
	C205.961960,269.583374 206.112183,269.949280 206.030853,270.533966 
	C206.345184,270.753052 206.659515,270.972107 206.958130,271.782928 
	C207.009171,272.171295 207.060211,272.559692 207.032455,273.536713 
	C207.346313,273.763306 207.660187,273.989899 207.962357,274.601257 
	C207.962357,274.601257 208.117126,274.953735 208.039108,275.529083 
	C208.349274,275.741364 208.659424,275.953674 209.232040,276.808197 
	C210.312134,277.900146 211.229965,279.252228 212.497849,280.043152 
	C223.172623,286.702515 234.649475,289.143097 247.209702,287.122620 
	C259.807251,285.096100 269.192902,278.282623 276.774536,268.536133 
	C278.254547,266.633545 279.077209,264.219574 280.548157,261.373871 
	C282.855438,266.675629 285.905212,270.556366 291.101318,268.816986 
	C295.267273,267.422455 298.829193,264.223358 302.707397,261.794861 
	C305.815796,266.322876 309.991150,267.949890 316.030365,266.561310 
	C316.908356,266.359436 317.854736,266.335663 318.759521,266.391235 
	C321.800018,266.578094 325.142120,267.731720 327.789825,266.824921 
	C330.575653,265.870850 332.695801,262.972992 335.226562,260.822754 
	C335.288086,260.881012 336.003693,261.369202 336.472687,262.031952 
	C341.158875,268.654144 344.170685,269.550293 351.838745,266.714600 
	C352.786438,266.364136 354.405457,266.118317 354.934967,266.629822 
	C357.986511,269.577728 361.444489,269.766907 364.809601,267.910919 
	C367.769745,266.278290 370.323090,263.908051 373.257050,261.713196 
	C376.115173,265.723633 380.299225,268.171143 386.562195,266.892181 
	C386.762970,266.604401 386.963715,266.316620 387.586334,266.031586 
	C387.586334,266.031586 387.977661,265.873810 388.534088,265.949371 
	C388.739227,265.648346 388.944336,265.347321 389.051208,265.046204 
	C389.051208,265.046204 389.066437,265.143311 389.729279,265.011414 
	C390.448273,264.321747 391.167267,263.632080 392.034851,262.578339 
	C392.034851,262.578339 392.034515,262.185120 392.742462,261.786652 
	C395.350739,254.535217 393.311829,247.662170 391.028839,240.051361 
	C388.643188,235.038193 386.257568,230.025009 383.947144,224.457016 
	C383.646881,224.250961 383.346588,224.044907 383.036133,223.967407 
	C383.036133,223.967407 383.165131,223.966705 382.957520,223.440155 
	C382.647675,223.238922 382.337830,223.037704 382.024841,222.973663 
	C382.024841,222.973663 382.161957,222.968674 381.957153,222.440811 
z"/>
<path fill="#F3D2B0" opacity="1.000000" stroke="none" 
	d="
M160.855682,263.035431 
	C159.493454,261.843628 158.131241,260.651794 156.338730,259.083496 
	C155.184082,260.632141 154.007401,262.210327 152.261047,264.028809 
	C151.468155,264.565613 151.244949,264.862152 151.021729,265.158691 
	C151.021744,265.158691 151.033569,265.030731 150.844101,265.103729 
	C150.417419,265.414581 150.180206,265.652405 149.942993,265.890259 
	C149.942993,265.890259 149.595016,266.041260 149.148224,266.109772 
	C148.449631,266.415253 148.197800,266.652222 147.945984,266.889191 
	C147.945984,266.889191 147.593658,267.040039 147.055649,267.001282 
	C145.686844,267.259918 144.856049,267.557343 144.025253,267.854767 
	C144.025253,267.854767 143.614563,268.023743 142.922806,268.000153 
	C137.154785,267.648041 132.078506,267.319519 126.709351,266.995300 
	C126.221764,267.014496 126.027061,267.029449 125.832352,267.044373 
	C125.832352,267.044373 125.409927,267.033691 125.072571,266.741455 
	C124.428894,266.307709 124.122566,266.166199 123.816238,266.024719 
	C123.816238,266.024719 123.398109,266.031616 123.070961,265.742340 
	C122.470894,265.259979 122.172470,265.122009 121.848557,265.039185 
	C121.848557,265.039185 121.954506,265.040039 121.935822,264.734863 
	C120.896675,263.639374 119.876205,262.849030 118.855743,262.058716 
	C118.855743,262.058716 118.942192,262.048431 118.969131,261.739929 
	C118.374290,260.613281 117.752518,259.795105 117.130745,258.976959 
	C117.130745,258.976959 116.967995,258.603943 117.006058,257.919861 
	C117.355347,248.091415 117.666565,238.947083 117.977791,229.802750 
	C117.977791,229.802750 117.970612,229.382248 118.300140,228.949539 
	C118.741516,227.620728 118.853371,226.724609 118.965240,225.828506 
	C119.593124,224.435410 120.221008,223.042313 121.210434,221.206970 
	C121.697235,220.456100 121.822479,220.147461 121.947723,219.838837 
	C121.947723,219.838837 121.962250,219.963181 122.169769,219.871964 
	C122.572884,219.466339 122.768478,219.151947 122.964073,218.837540 
	C122.964073,218.837540 122.954079,218.940186 123.309593,218.980896 
	C129.180664,218.339096 134.696228,217.656570 140.211792,216.974060 
	C140.211792,216.974045 140.619385,216.962555 140.892456,217.238266 
	C141.342728,217.745438 141.571472,217.901184 141.851746,217.981232 
	C144.854706,220.351822 147.857651,222.722427 151.126266,225.302750 
	C151.335098,224.721634 151.777542,223.490402 152.818909,221.940979 
	C153.600677,221.015350 153.783554,220.407883 153.966431,219.800415 
	C153.940948,219.467804 154.072021,219.217026 154.838242,218.884460 
	C155.533539,218.410889 155.750244,218.100876 155.966934,217.790863 
	C155.935394,217.465805 156.059540,217.219101 157.007919,217.051056 
	C161.832092,217.674820 165.987701,218.298294 170.143326,218.921783 
	C170.143326,218.921783 170.043549,218.938629 170.122345,219.124786 
	C170.316254,219.647171 170.538818,219.881210 170.868805,220.013092 
	C171.204269,220.430679 171.539734,220.848251 171.920303,221.871979 
	C172.256058,223.304672 172.546707,224.131241 172.837357,224.957794 
	C172.837357,224.957794 173.003265,225.410110 173.127258,225.798172 
	C173.491135,226.067719 173.731003,225.949188 173.970871,225.830673 
	C173.970871,225.830673 173.970093,225.967667 174.167557,225.865723 
	C174.563522,225.454391 174.762039,225.145035 174.960541,224.835663 
	C174.960541,224.835663 174.973083,224.969818 175.161407,224.857941 
	C175.556595,224.444473 175.763474,224.142868 175.970337,223.841263 
	C175.970337,223.841263 175.975037,223.976089 176.164124,223.862000 
	C176.558212,223.444565 176.763184,223.141235 176.968170,222.837891 
	C176.968170,222.837891 176.968292,222.965637 177.147980,222.886108 
	C177.562332,222.576477 177.796997,222.346359 178.031677,222.116241 
	C178.031677,222.116257 178.396606,221.959167 179.031036,221.995911 
	C182.215912,222.432938 184.756546,222.975784 187.322342,223.151810 
	C188.157455,223.209091 189.058258,222.308502 189.929016,221.846039 
	C189.929016,221.846039 189.949768,221.961838 190.149750,221.854996 
	C190.555740,221.445007 190.761734,221.141861 190.967728,220.838715 
	C190.967728,220.838715 190.971420,220.971710 191.167068,220.866119 
	C191.562851,220.453339 191.762985,220.146149 191.963135,219.838959 
	C191.963135,219.838959 191.964569,219.969193 192.166565,219.869720 
	C192.565384,219.459061 192.762207,219.147873 192.959045,218.836700 
	C192.959061,218.836700 192.957672,218.954956 193.150177,218.886719 
	C193.577423,218.581619 193.812180,218.344757 194.046921,218.107895 
	C194.046921,218.107895 194.412354,217.958237 195.047058,217.989044 
	C200.499588,217.988129 205.317413,217.956436 210.135239,217.924728 
	C210.135239,217.924728 210.031906,217.931458 210.134613,218.216522 
	C212.872681,220.307098 215.508041,222.112595 218.143387,223.918106 
	C218.143387,223.918106 218.050354,223.934097 218.124054,224.125717 
	C218.313187,224.654877 218.537704,224.886810 218.871292,225.013153 
	C220.258194,226.679031 221.645081,228.344894 223.053604,230.036743 
	C224.036987,228.479813 224.927307,227.070206 226.180954,225.200317 
	C226.745941,224.473282 226.883438,224.176788 226.956772,223.850525 
	C226.956772,223.850525 226.969421,223.977890 227.153687,223.849350 
	C227.548721,223.418640 227.759460,223.116455 227.970215,222.814285 
	C227.970215,222.814285 227.960876,222.417496 228.259888,222.102173 
	C228.686050,221.470123 228.813202,221.153397 228.940369,220.836670 
	C228.940369,220.836670 228.943863,220.929260 229.277405,220.964447 
	C231.053696,219.951477 232.496445,218.903320 233.939209,217.855194 
	C233.939209,217.855194 233.952011,217.936829 234.250946,217.972351 
	C235.365463,217.717056 236.181030,217.426208 236.996597,217.135345 
	C236.996597,217.135345 237.390320,216.967880 237.945862,216.986664 
	C238.728699,216.986664 238.955994,216.967865 239.183289,216.949066 
	C239.183289,216.949066 239.603531,216.967178 239.892090,217.410309 
	C241.833405,218.211380 243.486176,218.569351 245.138931,218.927322 
	C245.138931,218.927322 245.031738,218.946030 245.149353,219.141907 
	C245.562866,219.549179 245.858765,219.760544 246.154648,219.971924 
	C246.154648,219.971924 246.021194,219.976379 246.144745,220.157776 
	C246.563187,220.550583 246.858047,220.761978 247.152908,220.973389 
	C247.152908,220.973389 247.020645,220.977509 247.144577,221.159027 
	C247.563309,221.551575 247.858109,221.762589 248.152908,221.973602 
	C248.152908,221.973602 248.028946,221.973404 248.118256,222.139664 
	C248.322250,222.630539 248.537506,222.861359 248.853317,222.998383 
	C249.878281,224.344376 250.903259,225.690353 251.798172,226.865555 
	C253.300049,223.585342 254.752243,220.413589 256.777283,216.980026 
	C257.556702,216.427963 257.763275,216.137726 257.969879,215.847488 
	C257.969879,215.847488 257.966888,215.948761 258.332275,215.958466 
	C261.177338,215.620682 263.657013,215.273178 266.136658,214.925690 
	C266.136658,214.925690 266.018982,214.941986 266.184601,215.162720 
	C266.947357,215.563354 267.544525,215.743240 268.141663,215.923141 
	C268.141663,215.923141 268.038177,215.939880 268.151489,216.140579 
	C268.562683,216.549149 268.860535,216.757034 269.158386,216.964920 
	C269.158386,216.964920 269.055603,216.962158 269.036163,217.293610 
	C269.961578,219.090317 270.906433,220.555603 271.851288,222.020874 
	C272.098419,222.687759 272.345581,223.354660 272.713318,224.347000 
	C277.010590,216.177032 281.490051,214.943298 289.756836,219.183167 
	C290.551880,219.590912 292.014771,220.096985 292.369904,219.747299 
	C296.329834,215.847977 300.738251,216.298096 304.704163,219.043442 
	C308.306000,221.536758 311.271393,224.949921 314.513763,227.961456 
	C314.754181,228.184753 314.965363,228.439499 315.762695,228.717773 
	C316.547180,228.439011 316.759094,228.122101 316.971008,227.805176 
	C316.971008,227.805191 316.971161,227.404922 317.391876,227.138809 
	C318.198639,225.849869 318.584656,224.827057 318.970673,223.804230 
	C318.970673,223.804230 318.961609,223.413452 319.260773,223.101120 
	C319.686676,222.471817 319.813416,222.154861 319.940125,221.837891 
	C319.940125,221.837891 319.943054,221.928864 320.269836,221.963303 
	C321.375946,221.282043 322.155243,220.566360 322.934540,219.850677 
	C322.934540,219.850677 322.946503,219.933426 323.211578,219.956024 
	C323.988678,219.694534 324.500702,219.410477 325.012756,219.126404 
	C325.012756,219.126419 325.403412,218.966431 326.035645,218.990479 
	C328.066620,219.006546 329.465302,218.998581 330.864014,218.990631 
	C333.464600,220.754517 336.065155,222.518402 338.243622,223.995956 
	C340.551239,221.420120 342.164185,218.376648 344.645844,217.254669 
	C346.529846,216.402878 349.980957,217.336380 351.896606,218.674988 
	C354.127045,220.233597 355.407715,223.128372 357.198700,225.364700 
	C357.455078,225.684845 358.262421,225.563782 359.178772,225.182526 
	C359.732391,224.453766 359.871613,224.165070 359.960449,223.852066 
	C359.960449,223.852066 359.960449,223.954758 360.272827,223.913940 
	C361.031403,222.869049 361.477631,221.864944 361.923889,220.860840 
	C361.923889,220.860855 361.947388,220.964615 362.149963,220.855164 
	C362.557526,220.442520 362.762451,220.139313 362.967377,219.836090 
	C362.967377,219.836090 362.973572,219.973450 363.161499,219.859436 
	C363.556152,219.442902 363.762909,219.140350 363.969666,218.837830 
	C363.969696,218.837830 363.958344,218.943054 364.330902,218.977921 
	C369.211090,218.998550 373.718689,218.984329 378.226318,218.970093 
	C378.551636,218.947983 378.795380,219.078369 379.111145,219.833969 
	C379.562408,220.530197 379.860107,220.753708 380.157776,220.977219 
	C380.157776,220.977219 380.020172,220.979126 380.140564,221.162643 
	C380.560303,221.554535 380.859680,221.762909 381.159058,221.971283 
	C381.159058,221.971283 381.023132,221.975769 381.141296,222.161469 
	C381.560272,222.554337 381.861115,222.761505 382.161957,222.968674 
	C382.161957,222.968674 382.024841,222.973663 382.142090,223.159882 
	C382.561279,223.552948 382.863190,223.759827 383.165131,223.966705 
	C383.165131,223.966705 383.036133,223.967407 383.117065,224.141357 
	C383.312378,224.654175 383.537048,224.886353 383.871948,225.011826 
	C386.257568,230.025009 388.643188,235.038193 390.997437,240.895996 
	C391.322205,248.555466 391.678375,255.370285 392.034546,262.185120 
	C392.034515,262.185120 392.034851,262.578339 391.608246,262.767029 
	C390.476593,263.684937 389.771515,264.414124 389.066437,265.143311 
	C389.066437,265.143311 389.051208,265.046204 388.862366,265.121643 
	C388.338501,265.316681 388.106537,265.542236 387.977661,265.873810 
	C387.977661,265.873810 387.586334,266.031586 387.159912,266.128815 
	C386.422485,266.339233 386.187958,266.541199 386.029938,266.831940 
	C380.299225,268.171143 376.115173,265.723633 373.257050,261.713196 
	C370.323090,263.908051 367.769745,266.278290 364.809601,267.910919 
	C361.444489,269.766907 357.986511,269.577728 354.934967,266.629822 
	C354.405457,266.118317 352.786438,266.364136 351.838745,266.714600 
	C344.170685,269.550293 341.158875,268.654144 336.472687,262.031952 
	C336.003693,261.369202 335.288086,260.881012 335.226562,260.822754 
	C332.695801,262.972992 330.575653,265.870850 327.789825,266.824921 
	C325.142120,267.731720 321.800018,266.578094 318.759521,266.391235 
	C317.854736,266.335663 316.908356,266.359436 316.030365,266.561310 
	C309.991150,267.949890 305.815796,266.322876 302.707397,261.794861 
	C298.829193,264.223358 295.267273,267.422455 291.101318,268.816986 
	C285.905212,270.556366 282.855438,266.675629 280.548157,261.373871 
	C279.077209,264.219574 278.254547,266.633545 276.774536,268.536133 
	C269.192902,278.282623 259.807251,285.096100 247.209702,287.122620 
	C234.649475,289.143097 223.172623,286.702515 212.497849,280.043152 
	C211.229965,279.252228 210.312134,277.900146 209.018631,276.243530 
	C208.575851,275.437134 208.346481,275.195435 208.117126,274.953735 
	C208.117126,274.953735 207.962357,274.601257 207.894318,274.151123 
	C207.587936,273.449982 207.349594,273.199036 207.111267,272.948059 
	C207.060211,272.559692 207.009171,272.171295 206.889389,271.234619 
	C206.584503,270.440643 206.348343,270.194946 206.112183,269.949280 
	C206.112183,269.949280 205.961960,269.583374 205.816727,269.023254 
	C201.718994,267.653503 197.766479,266.843872 193.813980,266.034210 
	C193.813980,266.034210 193.401169,266.034271 193.077957,265.743225 
	C192.451050,265.317047 192.147369,265.181946 191.843689,265.046814 
	C191.843689,265.046814 191.974533,265.031952 191.850830,264.846008 
	C191.422668,264.450562 191.118210,264.241119 190.813751,264.031647 
	C190.813751,264.031647 190.403061,264.038513 190.143097,263.741211 
	C189.702469,263.161041 189.444992,263.005005 189.110657,262.975739 
	C188.117325,262.786346 187.124008,262.596924 185.791367,262.825256 
	C185.317947,263.546204 185.183838,263.849426 185.049713,264.152649 
	C185.049728,264.152649 185.032242,264.028961 184.842590,264.152100 
	C184.447220,264.583221 184.241501,264.891174 184.035782,265.199158 
	C184.063858,265.528900 183.936035,265.778961 183.179184,266.065002 
	C182.454651,266.416626 182.203232,266.652588 181.951797,266.888550 
	C181.951797,266.888550 181.586548,267.037109 180.951324,267.012177 
	C176.164673,267.350128 172.013229,267.713013 167.861786,268.075897 
	C167.861786,268.075897 167.977676,268.060913 167.819672,267.834290 
	C167.064087,267.427917 166.466537,267.248138 165.868988,267.068359 
	C165.868988,267.068359 165.948944,267.059723 165.928864,266.728119 
	C164.562424,265.620209 163.216080,264.843903 161.869751,264.067596 
	C161.869751,264.067596 161.969131,264.052032 161.845184,263.860260 
	C161.432709,263.457458 161.144196,263.246460 160.855682,263.035431 
M237.053238,266.944733 
	C237.053238,266.944733 237.061462,266.859039 237.192245,267.667358 
	C242.548660,270.523438 251.620499,269.472229 255.076035,265.652222 
	C252.365875,265.777649 249.597809,265.905762 246.232666,266.046448 
	C245.840714,265.996155 245.448776,265.945862 244.769699,265.440155 
	C244.439896,265.306213 244.110092,265.172241 243.347412,264.949951 
	C243.063614,264.779144 242.935669,264.528687 242.716599,263.691620 
	C242.415817,263.475220 242.115021,263.258820 241.234528,262.835297 
	C241.015533,262.285004 240.796555,261.734711 240.511993,261.019684 
	C239.904572,261.737122 239.398514,262.334808 238.187973,262.950165 
	C237.255112,263.883148 236.322235,264.816132 235.389359,265.749084 
	C235.972519,266.144653 236.555679,266.540222 237.053238,266.944733 
M190.233749,234.749054 
	C189.797729,234.846085 189.361710,234.943100 188.848007,234.283203 
	C188.628616,233.312225 188.707458,232.083847 188.133514,231.418854 
	C186.459381,229.479034 184.524429,227.764282 182.691711,225.961273 
	C180.844055,227.846298 178.418274,229.450897 177.326202,231.702393 
	C176.402435,233.606873 176.957687,236.260864 176.972641,238.582413 
	C177.014771,245.118561 175.418015,248.272369 172.150894,247.945816 
	C169.027679,247.633636 167.703766,243.697433 168.387192,237.836014 
	C168.807907,234.227600 169.594101,230.327759 168.648926,227.004501 
	C167.948471,224.541748 165.002975,221.788132 162.522308,221.103500 
	C160.991150,220.680923 157.123398,223.541687 156.589157,225.539352 
	C153.359070,237.617218 155.135529,249.140137 163.367615,258.834137 
	C170.772964,267.554596 179.797516,266.033752 184.776459,255.765488 
	C186.191116,252.847992 187.591965,249.923813 189.097336,247.683716 
	C189.439865,248.436035 189.782394,249.188339 190.128754,250.634171 
	C190.212784,251.085846 190.296814,251.537537 190.235870,252.724091 
	C191.828049,255.471329 193.420212,258.218567 195.442963,261.506775 
	C196.961487,262.020233 198.480011,262.533691 200.466370,263.272614 
	C200.639282,263.264282 200.812195,263.255920 201.692398,263.637756 
	C204.460922,263.594269 207.229446,263.550812 210.762100,263.709473 
	C211.105789,264.151703 211.788925,264.633759 211.742401,265.030243 
	C210.998245,271.373535 212.528824,275.060516 217.756454,277.785583 
	C229.382828,283.846252 252.061630,285.103851 264.755524,274.607391 
	C274.650452,266.425415 278.872101,255.056808 282.863739,243.594193 
	C284.817108,237.984848 285.975800,232.047089 286.894257,226.164307 
	C287.132629,224.637573 285.354614,221.613007 284.068939,221.343124 
	C282.598206,221.034378 280.045013,222.628128 279.042572,224.120804 
	C277.613647,226.248550 277.284210,229.084808 276.270386,231.529373 
	C275.201019,234.107834 273.879364,236.581680 272.667908,239.101227 
	C272.092834,239.006210 271.517761,238.911209 270.942657,238.816193 
	C270.310883,236.867615 269.481140,234.957520 269.093109,232.961563 
	C268.490906,229.864304 268.655762,226.537704 267.593323,223.638992 
	C266.909912,221.774277 264.823029,219.958450 262.934845,219.217621 
	C262.118164,218.897232 259.569519,221.064758 258.914154,222.580551 
	C255.365738,230.787949 259.310333,243.152115 267.081604,247.553085 
	C270.388092,249.425583 270.423096,251.310669 269.392151,254.392090 
	C262.392426,275.313507 239.345169,278.318817 227.046478,265.390198 
	C227.039291,264.996613 227.032104,264.603058 227.828476,263.988739 
	C237.096313,262.891205 236.442535,254.855942 238.666412,248.238144 
	C239.935455,248.297592 241.365158,248.364578 242.753784,248.742554 
	C242.753784,248.742554 242.932602,249.000290 242.867737,249.843597 
	C243.286880,254.198318 242.860840,258.930908 248.502869,261.694153 
	C254.007690,262.295044 256.177795,260.384125 255.777359,255.024475 
	C255.596390,252.602142 255.011353,250.209991 254.592270,246.985031 
	C253.051559,242.323730 251.510864,237.662445 249.878784,232.397827 
	C249.311035,231.581650 248.743286,230.765472 247.995575,229.279465 
	C247.311996,228.344208 246.687332,227.358414 245.935440,226.481735 
	C240.228119,219.827332 234.883850,220.025146 230.519653,227.564484 
	C228.058441,231.816345 226.586029,236.642548 224.694595,241.220932 
	C224.196899,242.425644 223.797470,243.670944 223.352921,244.897614 
	C221.480759,236.841095 218.188232,230.225235 211.813339,224.926651 
	C211.813339,224.926651 211.492615,224.846176 211.068466,224.262024 
	C209.378433,223.477646 207.688385,222.693268 205.373474,221.519592 
	C203.248566,221.661865 201.123672,221.804123 198.291519,221.978561 
	C196.265900,223.987900 194.240280,225.997238 191.787567,228.699493 
	C191.633408,229.479477 191.479248,230.259445 191.196686,231.475204 
	C191.196686,231.475204 191.281876,231.921448 190.972672,232.349716 
	C190.979248,232.525681 190.985809,232.701630 190.729431,233.203156 
	C190.761993,233.608826 190.794540,234.014481 190.233749,234.749054 
M341.329376,240.835983 
	C338.933319,236.105621 336.983643,231.071747 334.026611,226.722824 
	C330.448517,221.460571 325.363007,222.053772 322.155884,227.619644 
	C321.254120,229.184601 320.250397,230.940933 320.134583,232.665955 
	C319.590393,240.772141 319.147644,248.896439 319.080963,257.017639 
	C319.055664,260.103760 320.641998,263.594391 324.200989,263.088928 
	C326.255280,262.797180 329.007660,259.965424 329.529785,257.812225 
	C330.825928,252.467117 331.022217,246.855331 331.549438,242.306747 
	C334.596619,247.841141 337.685303,254.437149 341.687408,260.422455 
	C345.189178,265.659485 349.685516,265.082916 351.296387,258.988037 
	C353.180237,251.860260 353.904449,244.349960 354.377167,236.957352 
	C354.613159,233.266266 353.548431,229.336334 352.316559,225.775818 
	C351.741425,224.113571 349.392487,222.088730 347.809052,222.055389 
	C346.502747,222.027847 344.681854,224.489609 343.924896,226.214996 
	C343.092163,228.113068 343.066162,230.422806 342.957306,232.566833 
	C342.805634,235.554199 342.924683,238.554688 342.857971,241.548004 
	C342.851990,241.817413 342.335388,242.075455 342.055969,242.338760 
	C341.919128,242.035492 341.782318,241.732224 341.329376,240.835983 
M136.488220,264.126709 
	C142.628845,264.190887 147.985458,262.356659 151.966736,257.473907 
	C156.989334,251.313995 155.568832,242.660782 149.066467,239.530441 
	C147.781616,238.911911 146.409653,238.474289 145.077850,237.953217 
	C145.569168,237.756485 146.060486,237.559738 146.551804,237.363007 
	C145.914276,233.327271 146.337540,228.653259 144.385239,225.408615 
	C141.606567,220.790588 136.022110,220.368393 130.892258,221.021790 
	C126.081352,221.634537 123.492981,225.161179 122.971924,229.508011 
	C121.984818,237.742676 121.480446,246.049744 121.144249,254.341690 
	C120.978661,258.425751 123.519836,261.288971 127.307159,262.547302 
	C129.953217,263.426453 132.826340,263.622162 136.488220,264.126709 
M376.336029,223.921310 
	C370.584473,220.624420 367.346619,221.287033 363.726471,226.710587 
	C357.363678,236.243057 355.217224,246.896469 356.205627,258.128235 
	C356.383575,260.150635 358.388428,263.103516 360.124817,263.594849 
	C361.910889,264.100250 365.205475,262.713226 366.401215,261.092682 
	C368.395416,258.390076 369.159851,254.802917 370.614105,251.667984 
	C371.209991,250.383453 372.253357,249.306519 373.093140,248.135132 
	C373.995392,249.430786 375.179382,250.617661 375.731750,252.048386 
	C376.498993,254.035507 376.138977,256.889221 377.443115,258.135651 
	C379.356995,259.964874 382.306488,261.510803 384.833618,261.540009 
	C385.991486,261.553345 388.230286,257.655609 388.204712,255.553177 
	C388.063477,243.945587 385.200531,233.148010 376.336029,223.921310 
M316.315613,245.345093 
	C313.384705,238.920609 311.159851,232.033356 307.333527,226.195770 
	C303.119263,219.766235 297.177063,220.350479 292.903412,226.722504 
	C286.555115,236.187836 284.203247,246.777893 285.177063,258.004364 
	C285.354706,260.052399 287.268616,263.006134 289.014709,263.566223 
	C290.777893,264.131744 294.171722,262.867371 295.346008,261.286530 
	C297.329102,258.617065 298.009186,255.011047 299.472931,251.910110 
	C300.133911,250.509827 301.361359,249.376907 302.331818,248.122696 
	C303.134277,249.340851 304.174286,250.468872 304.679230,251.799896 
	C305.316833,253.480515 305.281586,255.422913 305.956421,257.081573 
	C307.419556,260.677612 310.079224,262.988525 314.120483,261.794769 
	C317.868530,260.687622 318.169220,257.301636 317.827209,254.007172 
	C317.553711,251.372482 317.000366,248.766846 316.315613,245.345093 
M262.885162,252.928452 
	C261.946716,251.397842 261.008270,249.867249 259.465027,247.350204 
	C259.465027,252.954849 259.465027,257.185852 259.465027,261.683411 
	C263.477173,257.717010 263.477173,257.717010 262.885162,252.928452 
z"/>
<path fill="#FEEDD9" opacity="1.000000" stroke="none" 
	d="
M392.388489,261.985901 
	C391.678375,255.370285 391.322205,248.555466 391.000183,241.274597 
	C393.311829,247.662170 395.350739,254.535217 392.388489,261.985901 
z"/>
<path fill="#FDF2E5" opacity="1.000000" stroke="none" 
	d="
M117.599464,230.020859 
	C117.666565,238.947083 117.355347,248.091415 117.008667,257.716370 
	C116.726868,251.598846 116.358269,245.001862 116.293121,238.401901 
	C116.266289,235.684235 116.892159,232.960144 117.599464,230.020859 
z"/>
<path fill="#FDF2E5" opacity="1.000000" stroke="none" 
	d="
M139.995956,216.605408 
	C134.696228,217.656570 129.180664,218.339096 123.259773,218.967590 
	C126.029167,215.377502 129.624115,213.725677 134.441940,215.689423 
	C136.031586,216.337357 137.990219,216.080093 139.995956,216.605408 
z"/>
<path fill="#FDEFDD" opacity="1.000000" stroke="none" 
	d="
M378.039062,218.630798 
	C373.718689,218.984329 369.211090,218.998550 364.279724,218.964508 
	C368.374817,215.427521 373.060669,215.679672 378.039062,218.630798 
z"/>
<path fill="#FDEFDD" opacity="1.000000" stroke="none" 
	d="
M194.002502,266.376740 
	C197.766479,266.843872 201.718994,267.653503 205.821533,268.825562 
	C202.044739,268.365051 198.117889,267.542175 194.002502,266.376740 
z"/>
<path fill="#FDEFDD" opacity="1.000000" stroke="none" 
	d="
M127.002235,266.991028 
	C132.078506,267.319519 137.154785,267.648041 142.700897,268.007782 
	C138.061844,268.026855 132.952957,268.014679 127.422195,267.709778 
	C127.000320,267.417053 127.002235,266.991028 127.002235,266.991028 
z"/>
<path fill="#FEEDD9" opacity="1.000000" stroke="none" 
	d="
M209.937759,217.566986 
	C205.317413,217.956436 200.499588,217.988129 195.244507,217.990814 
	C199.638641,214.808411 204.677307,215.767532 209.937759,217.566986 
z"/>
<path fill="#FEEDD9" opacity="1.000000" stroke="none" 
	d="
M217.999115,223.605133 
	C215.508041,222.112595 212.872681,220.307098 210.139191,218.164948 
	C212.645645,219.649597 215.250259,221.470886 217.999115,223.605133 
z"/>
<path fill="#FDEFDD" opacity="1.000000" stroke="none" 
	d="
M169.974945,218.575577 
	C165.987701,218.298294 161.832092,217.674820 157.221191,217.009888 
	C161.310928,215.339722 165.732040,214.992477 169.974945,218.575577 
z"/>
<path fill="#FDEFDD" opacity="1.000000" stroke="none" 
	d="
M189.513397,221.905792 
	C189.058258,222.308502 188.157455,223.209091 187.322342,223.151810 
	C184.756546,222.975784 182.215912,222.432938 179.229645,221.999939 
	C182.228485,221.966675 185.663147,221.966110 189.513397,221.905792 
z"/>
<path fill="#FEEDD9" opacity="1.000000" stroke="none" 
	d="
M168.085968,268.447906 
	C172.013229,267.713013 176.164673,267.350128 180.754181,267.010193 
	C176.898224,267.628723 172.604187,268.224335 168.085968,268.447906 
z"/>
<path fill="#FEEDD9" opacity="1.000000" stroke="none" 
	d="
M265.938324,214.569550 
	C263.657013,215.273178 261.177338,215.620682 258.282318,215.950195 
	C260.491302,215.359283 263.115631,214.786362 265.938324,214.569550 
z"/>
<path fill="#FEEDD9" opacity="1.000000" stroke="none" 
	d="
M271.919617,221.667282 
	C270.906433,220.555603 269.961578,219.090317 269.044983,217.242950 
	C270.044830,218.345139 271.016357,219.829407 271.919617,221.667282 
z"/>
<path fill="#FDEFDD" opacity="1.000000" stroke="none" 
	d="
M233.592346,217.926575 
	C232.496445,218.903320 231.053696,219.951477 229.231812,220.956100 
	C230.316971,219.941055 231.781250,218.969513 233.592346,217.926575 
z"/>
<path fill="#FEEDD9" opacity="1.000000" stroke="none" 
	d="
M162.009262,264.375183 
	C163.216080,264.843903 164.562424,265.620209 165.922440,266.767822 
	C164.673660,266.320312 163.411224,265.501556 162.009262,264.375183 
z"/>
<path fill="#FDEFDD" opacity="1.000000" stroke="none" 
	d="
M244.971466,218.598999 
	C243.486176,218.569351 241.833405,218.211380 240.084747,217.494659 
	C241.593903,217.514160 243.198959,217.892426 244.971466,218.598999 
z"/>
<path fill="#FDF2E5" opacity="1.000000" stroke="none" 
	d="
M118.921814,262.409180 
	C119.876205,262.849030 120.896675,263.639374 121.928604,264.787354 
	C120.956001,264.349915 119.971939,263.554779 118.921814,262.409180 
z"/>
<path fill="#FDF2E5" opacity="1.000000" stroke="none" 
	d="
M117.067322,259.312012 
	C117.752518,259.795105 118.374290,260.613281 118.965866,261.783325 
	C118.291740,261.305847 117.647820,260.476471 117.067322,259.312012 
z"/>
<path fill="#FDEFDD" opacity="1.000000" stroke="none" 
	d="
M361.618896,220.995331 
	C361.477631,221.864944 361.031403,222.869049 360.221863,223.907227 
	C360.343719,223.004150 360.828827,222.066986 361.618896,220.995331 
z"/>
<path fill="#FEEDD9" opacity="1.000000" stroke="none" 
	d="
M389.397858,265.077362 
	C389.771515,264.414124 390.476593,263.684937 391.533936,262.949066 
	C391.167267,263.632080 390.448273,264.321747 389.397858,265.077362 
z"/>
<path fill="#FDEFDD" opacity="1.000000" stroke="none" 
	d="
M330.800354,218.612579 
	C329.465302,218.998581 328.066620,219.006546 326.246704,218.986862 
	C327.462585,218.717651 329.099670,218.476105 330.800354,218.612579 
z"/>
<path fill="#FDEFDD" opacity="1.000000" stroke="none" 
	d="
M318.659515,223.953583 
	C318.584656,224.827057 318.198639,225.849869 317.471436,226.955170 
	C317.536316,226.059402 317.942322,225.081177 318.659515,223.953583 
z"/>
<path fill="#FDEFDD" opacity="1.000000" stroke="none" 
	d="
M322.608093,219.915634 
	C322.155243,220.566360 321.375946,221.282043 320.225189,221.954590 
	C320.663055,221.267838 321.472382,220.624222 322.608093,219.915634 
z"/>
<path fill="#FDEFDD" opacity="1.000000" stroke="none" 
	d="
M236.640991,217.073975 
	C236.181030,217.426208 235.365463,217.717056 234.209702,217.970032 
	C234.674805,217.625656 235.480103,217.319122 236.640991,217.073975 
z"/>
<path fill="#FDEFDD" opacity="1.000000" stroke="none" 
	d="
M144.385803,267.917786 
	C144.856049,267.557343 145.686844,267.259918 146.864090,266.996155 
	C146.389145,267.346802 145.567749,267.663788 144.385803,267.917786 
z"/>
<path fill="#FDEFDD" opacity="1.000000" stroke="none" 
	d="
M172.907669,224.600342 
	C172.546707,224.131241 172.256058,223.304672 171.997955,222.134186 
	C172.346329,222.607803 172.662155,223.425354 172.907669,224.600342 
z"/>
<path fill="#FDF2E5" opacity="1.000000" stroke="none" 
	d="
M118.635361,225.985992 
	C118.853371,226.724609 118.741516,227.620728 118.382202,228.755920 
	C118.191650,228.044510 118.248573,227.094009 118.635361,225.985992 
z"/>
<path fill="#FEEDD9" opacity="1.000000" stroke="none" 
	d="
M268.004822,215.628571 
	C267.544525,215.743240 266.947357,215.563354 266.182739,215.103348 
	C266.632843,214.993484 267.250397,215.163742 268.004822,215.628571 
z"/>
<path fill="#FEEDD9" opacity="1.000000" stroke="none" 
	d="
M166.001236,267.364258 
	C166.466537,267.248138 167.064087,267.427917 167.820404,267.892731 
	C167.363937,268.005249 166.748703,267.832703 166.001236,267.364258 
z"/>
<path fill="#FDEFDD" opacity="1.000000" stroke="none" 
	d="
M324.689636,219.063568 
	C324.500702,219.410477 323.988678,219.694534 323.169922,219.952545 
	C323.364288,219.617889 323.865417,219.309311 324.689636,219.063568 
z"/>
<path fill="#FDEFDD" opacity="1.000000" stroke="none" 
	d="
M153.667419,219.946899 
	C153.783554,220.407883 153.600677,221.015350 153.141479,221.799423 
	C153.032928,221.348465 153.200668,220.720917 153.667419,219.946899 
z"/>
<path fill="#FDEFDD" opacity="1.000000" stroke="none" 
	d="
M381.057312,221.707108 
	C380.859680,221.762909 380.560303,221.554535 380.142883,221.093872 
	C380.335083,221.042038 380.645294,221.242493 381.057312,221.707108 
z"/>
<path fill="#FDEFDD" opacity="1.000000" stroke="none" 
	d="
M191.943542,265.310486 
	C192.147369,265.181946 192.451050,265.317047 192.886658,265.665710 
	C192.693512,265.777557 192.368439,265.675873 191.943542,265.310486 
z"/>
<path fill="#FDEFDD" opacity="1.000000" stroke="none" 
	d="
M150.230316,265.934570 
	C150.180206,265.652405 150.417419,265.414581 150.907410,265.114624 
	C150.946014,265.361298 150.731827,265.670105 150.230316,265.934570 
z"/>
<path fill="#FDF2E5" opacity="1.000000" stroke="none" 
	d="
M121.950027,265.298645 
	C122.172470,265.122009 122.470894,265.259979 122.878418,265.660828 
	C122.692513,265.765076 122.372009,265.661560 121.950027,265.298645 
z"/>
<path fill="#FDEFDD" opacity="1.000000" stroke="none" 
	d="
M190.927475,264.293182 
	C191.118210,264.241119 191.422668,264.450562 191.853683,264.911804 
	C191.667221,264.960602 191.354202,264.757660 190.927475,264.293182 
z"/>
<path fill="#FEEDD9" opacity="1.000000" stroke="none" 
	d="
M184.295258,265.080841 
	C184.241501,264.891174 184.447220,264.583221 184.904938,264.148193 
	C184.956192,264.334930 184.755463,264.648743 184.295258,265.080841 
z"/>
<path fill="#FDEFDD" opacity="1.000000" stroke="none" 
	d="
M248.891479,222.725464 
	C248.537506,222.861359 248.322250,222.630539 248.122772,222.077850 
	C248.335190,222.050705 248.632416,222.251633 248.891479,222.725464 
z"/>
<path fill="#FDEFDD" opacity="1.000000" stroke="none" 
	d="
M151.290802,265.057098 
	C151.244949,264.862152 151.468155,264.565613 151.947937,264.147888 
	C151.989624,264.336334 151.774750,264.645905 151.290802,265.057098 
z"/>
<path fill="#FEEDD9" opacity="1.000000" stroke="none" 
	d="
M388.255859,265.911591 
	C388.106537,265.542236 388.338501,265.316681 388.911499,265.121704 
	C388.944336,265.347321 388.739227,265.648346 388.255859,265.911591 
z"/>
<path fill="#FDEFDD" opacity="1.000000" stroke="none" 
	d="
M319.670807,221.941895 
	C319.813416,222.154861 319.686676,222.471817 319.335968,222.920715 
	C319.208496,222.717056 319.304993,222.381454 319.670807,221.941895 
z"/>
<path fill="#FDEFDD" opacity="1.000000" stroke="none" 
	d="
M189.074936,263.262268 
	C189.444992,263.005005 189.702469,263.161041 189.951859,263.666321 
	C189.693481,263.775421 189.366348,263.662109 189.074936,263.262268 
z"/>
<path fill="#FEEDD9" opacity="1.000000" stroke="none" 
	d="
M185.314117,264.052429 
	C185.183838,263.849426 185.317947,263.546204 185.663147,263.107605 
	C185.775665,263.298889 185.677094,263.625580 185.314117,264.052429 
z"/>
<path fill="#FEEDD9" opacity="1.000000" stroke="none" 
	d="
M160.955276,263.295715 
	C161.144196,263.246460 161.432709,263.457458 161.846298,263.910522 
	C161.665878,263.953705 161.360382,263.754822 160.955276,263.295715 
z"/>
<path fill="#FEEDD9" opacity="1.000000" stroke="none" 
	d="
M269.057251,216.702911 
	C268.860535,216.757034 268.562683,216.549149 268.151001,216.088165 
	C268.343475,216.037003 268.649811,216.238968 269.057251,216.702911 
z"/>
<path fill="#FDEFDD" opacity="1.000000" stroke="none" 
	d="
M208.078125,275.241394 
	C208.346481,275.195435 208.575851,275.437134 208.887390,275.922424 
	C208.659424,275.953674 208.349274,275.741364 208.078125,275.241394 
z"/>
<path fill="#FDF2E5" opacity="1.000000" stroke="none" 
	d="
M123.929153,266.285034 
	C124.122566,266.166199 124.428894,266.307709 124.878006,266.659088 
	C124.694542,266.761108 124.368301,266.653198 123.929153,266.285034 
z"/>
<path fill="#FDEFDD" opacity="1.000000" stroke="none" 
	d="
M148.240311,266.928925 
	C148.197800,266.652222 148.449631,266.415253 148.958679,266.103210 
	C148.988815,266.341644 148.761719,266.655151 148.240311,266.928925 
z"/>
<path fill="#FEEDD9" opacity="1.000000" stroke="none" 
	d="
M182.244995,266.929077 
	C182.203232,266.652588 182.454651,266.416626 182.962555,266.106873 
	C182.992096,266.345276 182.765152,266.657440 182.244995,266.929077 
z"/>
<path fill="#FEEDD9" opacity="1.000000" stroke="none" 
	d="
M257.709351,215.947876 
	C257.763275,216.137726 257.556702,216.427963 257.110413,216.843109 
	C257.063446,216.661438 257.256134,216.354843 257.709351,215.947876 
z"/>
<path fill="#FEEDD9" opacity="1.000000" stroke="none" 
	d="
M386.296082,266.862061 
	C386.187958,266.541199 386.422485,266.339233 386.948975,266.127441 
	C386.963715,266.316620 386.762970,266.604401 386.296082,266.862061 
z"/>
<path fill="#FDF2E5" opacity="1.000000" stroke="none" 
	d="
M126.709351,266.995300 
	C127.002235,266.991028 127.000320,267.417053 126.998978,267.629944 
	C126.679390,267.749634 126.361153,267.656433 125.937637,267.303772 
	C126.027061,267.029449 126.221764,267.014496 126.709351,266.995300 
z"/>
<path fill="#FDEFDD" opacity="1.000000" stroke="none" 
	d="
M239.069092,216.677414 
	C238.955994,216.967865 238.728699,216.986664 238.159607,216.977448 
	C238.196823,216.768219 238.575851,216.586990 239.069092,216.677414 
z"/>
<path fill="#FDEFDD" opacity="1.000000" stroke="none" 
	d="
M177.749725,222.079529 
	C177.796997,222.346359 177.562332,222.576477 177.084320,222.880951 
	C177.049911,222.651123 177.258865,222.346954 177.749725,222.079529 
z"/>
<path fill="#FDEFDD" opacity="1.000000" stroke="none" 
	d="
M206.071518,270.241638 
	C206.348343,270.194946 206.584503,270.440643 206.897247,270.938751 
	C206.659515,270.972107 206.345184,270.753052 206.071518,270.241638 
z"/>
<path fill="#FDEFDD" opacity="1.000000" stroke="none" 
	d="
M207.071869,273.242371 
	C207.349594,273.199036 207.587936,273.449982 207.900146,273.958740 
	C207.660187,273.989899 207.346313,273.763306 207.071869,273.242371 
z"/>
<path fill="#FDEFDD" opacity="1.000000" stroke="none" 
	d="
M173.742645,225.903290 
	C173.731003,225.949188 173.491135,226.067719 173.147217,226.038239 
	C173.043182,225.890244 173.514435,225.975922 173.742645,225.903290 
z"/>
<path fill="#FDEFDD" opacity="1.000000" stroke="none" 
	d="
M383.909546,224.734421 
	C383.537048,224.886353 383.312378,224.654175 383.122131,224.077087 
	C383.346588,224.044907 383.646881,224.250961 383.909546,224.734421 
z"/>
<path fill="#FDEFDD" opacity="1.000000" stroke="none" 
	d="
M228.671478,220.940857 
	C228.813202,221.153397 228.686050,221.470123 228.335083,221.918518 
	C228.208374,221.715134 228.305466,221.380081 228.671478,220.940857 
z"/>
<path fill="#FDEFDD" opacity="1.000000" stroke="none" 
	d="
M316.701416,227.914505 
	C316.759094,228.122101 316.547180,228.439011 316.063568,228.863251 
	C316.005219,228.654999 316.218536,228.339417 316.701416,227.914505 
z"/>
<path fill="#FDEFDD" opacity="1.000000" stroke="none" 
	d="
M190.703323,220.939636 
	C190.761734,221.141861 190.555740,221.445007 190.091034,221.858337 
	C190.034515,221.659210 190.236725,221.349869 190.703323,220.939636 
z"/>
<path fill="#FDEFDD" opacity="1.000000" stroke="none" 
	d="
M380.055359,220.708862 
	C379.860107,220.753708 379.562408,220.530197 379.146484,220.048279 
	C379.336487,220.006760 379.644684,220.223618 380.055359,220.708862 
z"/>
<path fill="#FDEFDD" opacity="1.000000" stroke="none" 
	d="
M362.703003,219.938202 
	C362.762451,220.139313 362.557526,220.442520 362.096985,220.859879 
	C362.040497,220.662796 362.239594,220.351562 362.703003,219.938202 
z"/>
<path fill="#FDEFDD" opacity="1.000000" stroke="none" 
	d="
M174.694519,224.931335 
	C174.762039,225.145035 174.563522,225.454391 174.099274,225.860397 
	C174.031860,225.647018 174.230179,225.337006 174.694519,224.931335 
z"/>
<path fill="#FDEFDD" opacity="1.000000" stroke="none" 
	d="
M247.051529,220.709976 
	C246.858047,220.761978 246.563187,220.550583 246.146072,220.091034 
	C246.332611,220.044098 246.641388,220.245331 247.051529,220.709976 
z"/>
<path fill="#FDEFDD" opacity="1.000000" stroke="none" 
	d="
M191.697693,219.936584 
	C191.762985,220.146149 191.562851,220.453339 191.100586,220.863480 
	C191.036407,220.655685 191.234329,220.344955 191.697693,219.936584 
z"/>
<path fill="#FDF2E5" opacity="1.000000" stroke="none" 
	d="
M121.682472,219.940582 
	C121.822479,220.147461 121.697235,220.456100 121.354561,220.894623 
	C121.230492,220.697113 121.323853,220.369720 121.682472,219.940582 
z"/>
<path fill="#FDEFDD" opacity="1.000000" stroke="none" 
	d="
M363.703857,218.937683 
	C363.762909,219.140350 363.556152,219.442902 363.092743,219.858368 
	C363.036743,219.660049 363.237366,219.348785 363.703857,218.937683 
z"/>
<path fill="#FDEFDD" opacity="1.000000" stroke="none" 
	d="
M246.053650,219.708160 
	C245.858765,219.760544 245.562866,219.549179 245.146912,219.087555 
	C245.335434,219.039673 245.644058,219.242035 246.053650,219.708160 
z"/>
<path fill="#FDEFDD" opacity="1.000000" stroke="none" 
	d="
M192.692963,218.932312 
	C192.762207,219.147873 192.565384,219.459061 192.101593,219.865204 
	C192.032043,219.649399 192.229462,219.338654 192.692963,218.932312 
z"/>
<path fill="#FDEFDD" opacity="1.000000" stroke="none" 
	d="
M170.904175,219.736359 
	C170.538818,219.881210 170.316254,219.647171 170.122314,219.074188 
	C170.342178,219.044815 170.640854,219.252213 170.904175,219.736359 
z"/>
<path fill="#FDEFDD" opacity="1.000000" stroke="none" 
	d="
M248.051544,221.710236 
	C247.858109,221.762589 247.563309,221.551575 247.145905,221.092865 
	C247.332260,221.045761 247.641220,221.246323 248.051544,221.710236 
z"/>
<path fill="#FDF2E5" opacity="1.000000" stroke="none" 
	d="
M122.697891,218.934723 
	C122.768478,219.151947 122.572884,219.466339 122.107193,219.873352 
	C122.035294,219.654602 122.233498,219.343262 122.697891,218.934723 
z"/>
<path fill="#FDEFDD" opacity="1.000000" stroke="none" 
	d="
M359.705383,223.950989 
	C359.871613,224.165070 359.732391,224.453766 359.343567,224.853729 
	C359.246368,224.676193 359.348358,224.363068 359.705383,223.950989 
z"/>
<path fill="#FDEFDD" opacity="1.000000" stroke="none" 
	d="
M226.696655,223.947510 
	C226.883438,224.176788 226.745941,224.473282 226.335312,224.870514 
	C226.229752,224.682175 226.333160,224.363342 226.696655,223.947510 
z"/>
<path fill="#FEEDD9" opacity="1.000000" stroke="none" 
	d="
M218.912872,224.735687 
	C218.537704,224.886810 218.313187,224.654877 218.125305,224.078537 
	C218.353394,224.045898 218.653915,224.252060 218.912872,224.735687 
z"/>
<path fill="#FEEDD9" opacity="1.000000" stroke="none" 
	d="
M193.762039,218.064148 
	C193.812180,218.344757 193.577423,218.581619 193.091522,218.879105 
	C193.052643,218.633286 193.264893,218.326843 193.762039,218.064148 
z"/>
<path fill="#FDEFDD" opacity="1.000000" stroke="none" 
	d="
M155.705475,217.913467 
	C155.750244,218.100876 155.533539,218.410889 155.057220,218.845947 
	C155.013077,218.659363 155.228546,218.347717 155.705475,217.913467 
z"/>
<path fill="#FDEFDD" opacity="1.000000" stroke="none" 
	d="
M175.704407,223.940277 
	C175.763474,224.142868 175.556595,224.444473 175.094055,224.859726 
	C175.038422,224.662018 175.238449,224.350662 175.704407,223.940277 
z"/>
<path fill="#FDEFDD" opacity="1.000000" stroke="none" 
	d="
M383.061340,223.703430 
	C382.863190,223.759827 382.561279,223.552948 382.143677,223.091278 
	C382.337830,223.037704 382.647675,223.238922 383.061340,223.703430 
z"/>
<path fill="#FDEFDD" opacity="1.000000" stroke="none" 
	d="
M227.711121,222.931091 
	C227.759460,223.116455 227.548721,223.418640 227.089722,223.851440 
	C227.044998,223.670700 227.248505,223.359299 227.711121,222.931091 
z"/>
<path fill="#FDEFDD" opacity="1.000000" stroke="none" 
	d="
M176.703125,222.938538 
	C176.763184,223.141235 176.558212,223.444565 176.096710,223.860458 
	C176.039474,223.661743 176.238770,223.350479 176.703125,222.938538 
z"/>
<path fill="#FDEFDD" opacity="1.000000" stroke="none" 
	d="
M382.059570,222.704742 
	C381.861115,222.761505 381.560272,222.554337 381.142822,222.093491 
	C381.336517,222.040131 381.646820,222.240479 382.059570,222.704742 
z"/>
<path fill="#FDF2E5" opacity="1.000000" stroke="none" 
	d="
M141.884827,217.712494 
	C141.571472,217.901184 141.342728,217.745438 141.078278,217.322159 
	C141.299973,217.234818 141.608948,217.339294 141.884827,217.712494 
z"/>
<path fill="#75543B" opacity="1.000000" stroke="none" 
	d="
M227.031830,265.783386 
	C239.345169,278.318817 262.392426,275.313507 269.392151,254.392090 
	C270.423096,251.310669 270.388092,249.425583 267.081604,247.553085 
	C259.310333,243.152115 255.365738,230.787949 258.914154,222.580551 
	C259.569519,221.064758 262.118164,218.897232 262.934845,219.217621 
	C264.823029,219.958450 266.909912,221.774277 267.593323,223.638992 
	C268.655762,226.537704 268.490906,229.864304 269.093109,232.961563 
	C269.481140,234.957520 270.310883,236.867615 270.942657,238.816193 
	C271.517761,238.911209 272.092834,239.006210 272.667908,239.101227 
	C273.879364,236.581680 275.201019,234.107834 276.270386,231.529373 
	C277.284210,229.084808 277.613647,226.248550 279.042572,224.120804 
	C280.045013,222.628128 282.598206,221.034378 284.068939,221.343124 
	C285.354614,221.613007 287.132629,224.637573 286.894257,226.164307 
	C285.975800,232.047089 284.817108,237.984848 282.863739,243.594193 
	C278.872101,255.056808 274.650452,266.425415 264.755524,274.607391 
	C252.061630,285.103851 229.382828,283.846252 217.756454,277.785583 
	C212.528824,275.060516 210.998245,271.373535 211.742401,265.030243 
	C211.788925,264.633759 211.105789,264.151703 210.400635,263.237061 
	C210.843582,259.264893 213.177231,259.877136 215.440430,260.952759 
	C215.488373,261.705444 215.579742,262.557068 215.898315,262.652832 
	C219.589630,263.762421 223.315292,264.757751 227.031830,265.783386 
z"/>
<path fill="#73523A" opacity="1.000000" stroke="none" 
	d="
M341.487427,241.132477 
	C341.782318,241.732224 341.919128,242.035492 342.055969,242.338760 
	C342.335388,242.075455 342.851990,241.817413 342.857971,241.548004 
	C342.924683,238.554688 342.805634,235.554199 342.957306,232.566833 
	C343.066162,230.422806 343.092163,228.113068 343.924896,226.214996 
	C344.681854,224.489609 346.502747,222.027847 347.809052,222.055389 
	C349.392487,222.088730 351.741425,224.113571 352.316559,225.775818 
	C353.548431,229.336334 354.613159,233.266266 354.377167,236.957352 
	C353.904449,244.349960 353.180237,251.860260 351.296387,258.988037 
	C349.685516,265.082916 345.189178,265.659485 341.687408,260.422455 
	C337.685303,254.437149 334.596619,247.841141 331.549438,242.306747 
	C331.022217,246.855331 330.825928,252.467117 329.529785,257.812225 
	C329.007660,259.965424 326.255280,262.797180 324.200989,263.088928 
	C320.641998,263.594391 319.055664,260.103760 319.080963,257.017639 
	C319.147644,248.896439 319.590393,240.772141 320.134583,232.665955 
	C320.250397,230.940933 321.254120,229.184601 322.155884,227.619644 
	C325.363007,222.053772 330.448517,221.460571 334.026611,226.722824 
	C336.983643,231.071747 338.933319,236.105621 341.487427,241.132477 
z"/>
<path fill="#73533A" opacity="1.000000" stroke="none" 
	d="
M136.043121,264.124939 
	C132.826340,263.622162 129.953217,263.426453 127.307159,262.547302 
	C123.519836,261.288971 120.978661,258.425751 121.144249,254.341690 
	C121.480446,246.049744 121.984818,237.742676 122.971924,229.508011 
	C123.492981,225.161179 126.081352,221.634537 130.892258,221.021790 
	C136.022110,220.368393 141.606567,220.790588 144.385239,225.408615 
	C146.337540,228.653259 145.914276,233.327271 146.551804,237.363007 
	C146.060486,237.559738 145.569168,237.756485 145.077850,237.953217 
	C146.409653,238.474289 147.781616,238.911911 149.066467,239.530441 
	C155.568832,242.660782 156.989334,251.313995 151.966736,257.473907 
	C147.985458,262.356659 142.628845,264.190887 136.043121,264.124939 
M137.270676,253.152237 
	C138.079453,252.958847 139.155777,253.024963 139.644485,252.521133 
	C140.878174,251.249176 141.847366,249.720688 142.922546,248.294968 
	C141.302689,247.466782 139.493729,245.739761 138.109390,246.031021 
	C136.251816,246.421814 134.015396,248.042862 133.225601,249.735046 
	C132.162582,252.012619 133.867920,253.399628 137.270676,253.152237 
M131.904984,234.434647 
	C132.633011,235.578171 133.211426,236.893402 134.191635,237.747482 
	C134.444580,237.967834 136.509903,236.929367 136.783112,236.137909 
	C137.391830,234.374496 137.556396,232.399139 137.523895,230.516678 
	C137.516327,230.078751 135.452927,229.134567 135.262863,229.329193 
	C133.996872,230.625244 132.982697,232.167267 131.904984,234.434647 
z"/>
<path fill="#73533A" opacity="1.000000" stroke="none" 
	d="
M188.999146,247.002686 
	C187.591965,249.923813 186.191116,252.847992 184.776459,255.765488 
	C179.797516,266.033752 170.772964,267.554596 163.367615,258.834137 
	C155.135529,249.140137 153.359070,237.617218 156.589157,225.539352 
	C157.123398,223.541687 160.991150,220.680923 162.522308,221.103500 
	C165.002975,221.788132 167.948471,224.541748 168.648926,227.004501 
	C169.594101,230.327759 168.807907,234.227600 168.387192,237.836014 
	C167.703766,243.697433 169.027679,247.633636 172.150894,247.945816 
	C175.418015,248.272369 177.014771,245.118561 176.972641,238.582413 
	C176.957687,236.260864 176.402435,233.606873 177.326202,231.702393 
	C178.418274,229.450897 180.844055,227.846298 182.691711,225.961273 
	C184.524429,227.764282 186.459381,229.479034 188.133514,231.418854 
	C188.707458,232.083847 188.628616,233.312225 188.622772,234.960999 
	C188.598083,239.426743 188.798615,243.214722 188.999146,247.002686 
z"/>
<path fill="#735239" opacity="1.000000" stroke="none" 
	d="
M376.608032,224.177597 
	C385.200531,233.148010 388.063477,243.945587 388.204712,255.553177 
	C388.230286,257.655609 385.991486,261.553345 384.833618,261.540009 
	C382.306488,261.510803 379.356995,259.964874 377.443115,258.135651 
	C376.138977,256.889221 376.498993,254.035507 375.731750,252.048386 
	C375.179382,250.617661 373.995392,249.430786 373.093140,248.135132 
	C372.253357,249.306519 371.209991,250.383453 370.614105,251.667984 
	C369.159851,254.802917 368.395416,258.390076 366.401215,261.092682 
	C365.205475,262.713226 361.910889,264.100250 360.124817,263.594849 
	C358.388428,263.103516 356.383575,260.150635 356.205627,258.128235 
	C355.217224,246.896469 357.363678,236.243057 363.726471,226.710587 
	C367.346619,221.287033 370.584473,220.624420 376.608032,224.177597 
M370.079865,235.637024 
	C370.625336,237.232574 371.170807,238.828125 371.716278,240.423676 
	C372.413696,240.302216 373.111115,240.180771 373.808563,240.059311 
	C373.701447,238.127701 374.093384,235.977432 373.366058,234.317581 
	C372.365265,232.033630 370.925995,232.508057 370.079865,235.637024 
z"/>
<path fill="#73523A" opacity="1.000000" stroke="none" 
	d="
M316.443420,245.746704 
	C317.000366,248.766846 317.553711,251.372482 317.827209,254.007172 
	C318.169220,257.301636 317.868530,260.687622 314.120483,261.794769 
	C310.079224,262.988525 307.419556,260.677612 305.956421,257.081573 
	C305.281586,255.422913 305.316833,253.480515 304.679230,251.799896 
	C304.174286,250.468872 303.134277,249.340851 302.331818,248.122681 
	C301.361359,249.376907 300.133911,250.509827 299.472931,251.910110 
	C298.009186,255.011047 297.329102,258.617065 295.346008,261.286530 
	C294.171722,262.867371 290.777893,264.131744 289.014709,263.566223 
	C287.268616,263.006134 285.354706,260.052399 285.177063,258.004364 
	C284.203247,246.777893 286.555115,236.187836 292.903412,226.722504 
	C297.177063,220.350479 303.119263,219.766235 307.333527,226.195770 
	C311.159851,232.033356 313.384705,238.920609 316.443420,245.746704 
M299.121735,236.532654 
	C299.799805,237.730042 300.477875,238.927429 301.155945,240.124817 
	C301.814758,239.741287 303.067810,239.299393 303.036804,238.983597 
	C302.820862,236.783936 302.338684,234.610397 301.941803,232.428497 
	C301.389496,232.437439 300.837189,232.446396 300.284882,232.455338 
	C299.898621,233.561996 299.512360,234.668655 299.121735,236.532654 
z"/>
<path fill="#73523A" opacity="1.000000" stroke="none" 
	d="
M211.988434,225.207153 
	C218.188232,230.225235 221.480759,236.841095 223.352921,244.897614 
	C223.797470,243.670944 224.196899,242.425644 224.694595,241.220932 
	C226.586029,236.642548 228.058441,231.816345 230.519653,227.564484 
	C234.883850,220.025146 240.228119,219.827332 245.935440,226.481735 
	C246.687332,227.358414 247.311996,228.344208 247.708008,229.666046 
	C244.166595,230.350845 241.422058,234.268829 237.797226,231.626846 
	C234.000107,228.859283 233.049316,231.937119 231.774155,234.608261 
	C233.203720,234.096878 234.633286,233.585495 236.441711,232.938599 
	C236.801941,234.489456 237.031540,235.745682 237.393478,236.962524 
	C237.772354,238.236343 238.278351,239.472351 238.728775,240.724884 
	C239.878082,240.255096 241.181244,239.992661 242.147293,239.275879 
	C244.829926,237.285416 247.372345,235.105942 249.970154,233.001144 
	C251.510864,237.662445 253.051559,242.323730 254.207062,247.550171 
	C252.886917,249.574509 251.056320,251.122284 251.190140,252.475830 
	C251.547989,256.095123 249.938126,258.639435 247.945114,261.199860 
	C242.860840,258.930908 243.286880,254.198318 243.287933,249.413116 
	C244.780014,248.015488 246.762100,247.011734 246.725006,246.089203 
	C246.657852,244.419540 245.386124,242.798340 244.617325,241.156921 
	C244.165985,241.339142 243.714645,241.521362 243.263306,241.703583 
	C243.107147,243.946243 242.951004,246.188904 242.794861,248.431564 
	C241.365158,248.364578 239.935455,248.297592 238.666412,248.238144 
	C236.442535,254.855942 237.096313,262.891205 227.326721,263.860626 
	C226.763931,263.571594 226.702896,263.410645 226.893127,262.968811 
	C227.537308,261.635895 227.930222,260.583862 228.323135,259.531830 
	C227.094727,260.249817 225.866318,260.967773 224.396835,261.354767 
	C223.630814,257.584656 223.105881,254.145508 222.530533,250.376160 
	C221.597305,252.163788 220.850189,253.594940 219.744583,254.951584 
	C219.232040,253.306427 218.944443,251.735474 218.947739,250.165131 
	C218.960236,244.231094 221.021881,237.610046 215.422653,233.221603 
	C212.441345,230.884933 211.704987,228.491241 211.988434,225.207153 
M235.824387,243.508896 
	C235.415665,243.222855 235.006943,242.936798 234.598236,242.650757 
	C234.488693,243.074326 234.379135,243.497894 234.269577,243.921463 
	C234.746811,243.972351 235.224030,244.023239 235.824387,243.508896 
M241.562622,227.815979 
	C241.198608,227.811371 240.834595,227.806747 240.470581,227.802124 
	C240.468765,227.953125 240.456558,228.235413 240.466614,228.236191 
	C240.828781,228.264877 241.193039,228.267273 241.562622,227.815979 
M237.486557,243.565170 
	C237.486557,243.565170 237.440399,243.479599 237.486557,243.565170 
M223.486252,248.568054 
	C223.486252,248.568054 223.438324,248.479996 223.486252,248.568054 
z"/>
<path fill="#705038" opacity="1.000000" stroke="none" 
	d="
M211.900879,225.066895 
	C211.704987,228.491241 212.441345,230.884933 215.422653,233.221603 
	C221.021881,237.610046 218.960236,244.231094 218.947739,250.165131 
	C218.944443,251.735474 219.232040,253.306427 219.703690,255.243805 
	C219.693726,256.078888 219.366150,256.547272 218.658875,257.018005 
	C217.358597,258.156647 216.438019,259.292938 215.552460,260.492523 
	C215.587494,260.555847 215.589417,260.700531 215.589417,260.700531 
	C213.177231,259.877136 210.843582,259.264893 210.018555,263.135986 
	C207.229446,263.550812 204.460922,263.594269 201.332047,263.181824 
	C200.848846,262.431274 200.725998,262.136658 200.603165,261.842041 
	C200.401627,262.243744 200.200073,262.645447 199.998535,263.047150 
	C198.480011,262.533691 196.961487,262.020233 195.224976,260.829315 
	C195.348999,256.363190 194.445175,253.280594 190.380829,251.989212 
	C190.296814,251.537537 190.212784,251.085846 190.386200,249.976807 
	C190.778839,245.217239 190.914032,241.115051 191.388687,236.968811 
	C194.383820,237.618027 197.039459,238.311295 199.796890,239.451508 
	C200.112961,243.163315 199.960510,246.512802 200.686752,249.659515 
	C201.086853,251.393112 202.801041,253.852097 204.214828,254.067490 
	C206.059128,254.348526 208.302460,252.918961 210.153061,251.844666 
	C211.003922,251.350739 211.328934,249.950989 212.220581,248.923813 
	C212.425003,247.923264 212.301224,246.960861 212.120087,245.667648 
	C212.091766,244.891449 212.120804,244.446060 212.483704,243.917114 
	C214.306015,239.324066 213.108597,236.714111 208.864151,235.078827 
	C208.907501,235.035629 208.874466,235.153488 208.912476,234.741821 
	C208.613068,229.726349 208.228409,229.407501 203.587585,230.186478 
	C202.139908,230.802505 201.033356,231.399597 199.499481,231.999847 
	C196.378906,232.294556 193.685654,232.586060 190.992386,232.877563 
	C190.985809,232.701630 190.979248,232.525681 191.401840,232.113342 
	C191.662369,231.597794 191.493713,231.318604 191.325073,231.039429 
	C191.479248,230.259445 191.633408,229.479477 192.366074,228.340637 
	C195.747742,226.757538 199.541931,226.527405 198.998764,221.946396 
	C201.123672,221.804123 203.248566,221.661865 205.751907,222.083038 
	C207.917770,223.379715 209.705200,224.112946 211.492615,224.846161 
	C211.492615,224.846176 211.813339,224.926651 211.900879,225.066895 
z"/>
<path fill="#74533B" opacity="1.000000" stroke="none" 
	d="
M249.924469,232.699493 
	C247.372345,235.105942 244.829926,237.285416 242.147293,239.275879 
	C241.181244,239.992661 239.878082,240.255096 238.728775,240.724884 
	C238.278351,239.472351 237.772354,238.236343 237.393478,236.962524 
	C237.031540,235.745682 236.801941,234.489456 236.441711,232.938599 
	C234.633286,233.585495 233.203720,234.096878 231.774155,234.608261 
	C233.049316,231.937119 234.000107,228.859283 237.797226,231.626846 
	C241.422058,234.268829 244.166595,230.350845 247.797974,230.000946 
	C248.743286,230.765472 249.311035,231.581650 249.924469,232.699493 
z"/>
<path fill="#E7C5A6" opacity="1.000000" stroke="none" 
	d="
M219.038574,257.015625 
	C219.366150,256.547272 219.693726,256.078888 220.062195,255.318298 
	C220.850189,253.594940 221.597305,252.163788 222.530533,250.376160 
	C223.105881,254.145508 223.630814,257.584656 224.516052,261.597778 
	C225.464859,262.531097 226.053360,262.890411 226.641846,263.249725 
	C226.702896,263.410645 226.763931,263.571594 226.924942,263.971008 
	C227.032104,264.603058 227.039291,264.996613 227.039154,265.586792 
	C223.315292,264.757751 219.589630,263.762421 215.898315,262.652832 
	C215.579742,262.557068 215.488373,261.705444 215.440430,260.952759 
	C215.589417,260.700531 215.587494,260.555847 215.851074,260.445435 
	C217.089294,259.228546 218.063934,258.122101 219.038574,257.015625 
z"/>
<path fill="#74533B" opacity="1.000000" stroke="none" 
	d="
M248.223999,261.447021 
	C249.938126,258.639435 251.547989,256.095123 251.190140,252.475830 
	C251.056320,251.122284 252.886917,249.574509 254.215729,247.959732 
	C255.011353,250.209991 255.596390,252.602142 255.777359,255.024475 
	C256.177795,260.384125 254.007690,262.295044 248.223999,261.447021 
z"/>
<path fill="#73523A" opacity="1.000000" stroke="none" 
	d="
M190.860901,233.040359 
	C193.685654,232.586060 196.378906,232.294556 199.533417,232.437912 
	C199.894806,234.916702 199.794952,236.960632 199.695114,239.004547 
	C197.039459,238.311295 194.383820,237.618027 191.359344,236.537201 
	C190.936050,235.573135 190.881577,234.996643 190.827103,234.420151 
	C190.794540,234.014481 190.761993,233.608826 190.860901,233.040359 
z"/>
<path fill="#75543B" opacity="1.000000" stroke="none" 
	d="
M190.530426,234.584595 
	C190.881577,234.996643 190.936050,235.573135 191.019867,236.581238 
	C190.914032,241.115051 190.778839,245.217239 190.384293,249.630035 
	C189.782394,249.188339 189.439865,248.436035 189.048248,247.343201 
	C188.798615,243.214722 188.598083,239.426743 188.661621,235.339447 
	C189.361710,234.943100 189.797729,234.846085 190.530426,234.584595 
z"/>
<path fill="#FEEDD9" opacity="1.000000" stroke="none" 
	d="
M262.946198,253.313019 
	C263.477173,257.717010 263.477173,257.717010 259.465027,261.683411 
	C259.465027,257.185852 259.465027,252.954849 259.465027,247.350204 
	C261.008270,249.867249 261.946716,251.397842 262.946198,253.313019 
z"/>
<path fill="#000000" opacity="1.000000" stroke="none" 
	d="
M245.056824,265.895569 
	C245.448776,265.945862 245.840714,265.996155 246.696945,266.383118 
	C247.308167,266.960907 247.492462,267.188995 247.583694,267.449615 
	C247.620346,267.554291 247.440582,267.861084 247.379623,267.855438 
	C243.938873,267.538116 240.500275,267.197418 237.061462,266.859039 
	C237.061462,266.859039 237.053238,266.944733 237.035599,266.607117 
	C237.642792,265.157166 238.267624,264.044830 238.892456,262.932495 
	C239.398514,262.334808 239.904572,261.737122 240.511993,261.019684 
	C240.796555,261.734711 241.015533,262.285004 241.639526,263.198425 
	C242.350891,263.773895 242.657242,263.986267 242.963593,264.198608 
	C242.935669,264.528687 243.063614,264.779144 243.687134,265.263702 
	C244.370193,265.683502 244.713501,265.789551 245.056824,265.895569 
z"/>
<path fill="#FEEDD9" opacity="1.000000" stroke="none" 
	d="
M237.126862,267.263184 
	C240.500275,267.197418 243.938873,267.538116 247.379623,267.855438 
	C247.440582,267.861084 247.620346,267.554291 247.583694,267.449615 
	C247.492462,267.188995 247.308167,266.960907 246.995483,266.376831 
	C249.597809,265.905762 252.365875,265.777649 255.076035,265.652222 
	C251.620499,269.472229 242.548660,270.523438 237.126862,267.263184 
z"/>
<path fill="#74533B" opacity="1.000000" stroke="none" 
	d="
M242.774323,248.587067 
	C242.951004,246.188904 243.107147,243.946243 243.263306,241.703583 
	C243.714645,241.521362 244.165985,241.339142 244.617325,241.156921 
	C245.386124,242.798340 246.657852,244.419540 246.725006,246.089203 
	C246.762100,247.011734 244.780014,248.015488 243.320374,248.991455 
	C242.932602,249.000290 242.753784,248.742554 242.774323,248.587067 
z"/>
<path fill="#75543B" opacity="1.000000" stroke="none" 
	d="
M190.308350,252.356659 
	C194.445175,253.280594 195.348999,256.363190 195.009705,260.558838 
	C193.420212,258.218567 191.828049,255.471329 190.308350,252.356659 
z"/>
<path fill="#73523A" opacity="1.000000" stroke="none" 
	d="
M198.645142,221.962479 
	C199.541931,226.527405 195.747742,226.757538 192.579620,227.994171 
	C194.240280,225.997238 196.265900,223.987900 198.645142,221.962479 
z"/>
<path fill="#73523A" opacity="1.000000" stroke="none" 
	d="
M211.280548,224.554092 
	C209.705200,224.112946 207.917770,223.379715 206.064346,222.277679 
	C207.688385,222.693268 209.378433,223.477646 211.280548,224.554092 
z"/>
<path fill="#FEEDD9" opacity="1.000000" stroke="none" 
	d="
M238.540222,262.941345 
	C238.267624,264.044830 237.642792,265.157166 237.078400,266.602631 
	C236.555679,266.540222 235.972519,266.144653 235.389374,265.749084 
	C236.322235,264.816132 237.255112,263.883148 238.540222,262.941345 
z"/>
<path fill="#75543B" opacity="1.000000" stroke="none" 
	d="
M200.232452,263.159882 
	C200.200073,262.645447 200.401627,262.243744 200.603165,261.842041 
	C200.725998,262.136658 200.848846,262.431274 200.978394,262.986725 
	C200.812195,263.255920 200.639282,263.264282 200.232452,263.159882 
z"/>
<path fill="#FEEDD9" opacity="1.000000" stroke="none" 
	d="
M242.840088,263.945129 
	C242.657242,263.986267 242.350891,263.773895 241.929382,263.302002 
	C242.115021,263.258820 242.415817,263.475220 242.840088,263.945129 
z"/>
<path fill="#FEEDD9" opacity="1.000000" stroke="none" 
	d="
M244.913269,265.667847 
	C244.713501,265.789551 244.370193,265.683502 243.903580,265.307861 
	C244.110092,265.172241 244.439896,265.306213 244.913269,265.667847 
z"/>
<path fill="#73523A" opacity="1.000000" stroke="none" 
	d="
M191.260880,231.257324 
	C191.493713,231.318604 191.662369,231.597794 191.556442,231.899200 
	C191.281876,231.921448 191.196686,231.475204 191.260880,231.257324 
z"/>
<path fill="#F3D2B0" opacity="1.000000" stroke="none" 
	d="
M136.853027,253.190125 
	C133.867920,253.399628 132.162582,252.012619 133.225601,249.735046 
	C134.015396,248.042862 136.251816,246.421814 138.109390,246.031021 
	C139.493729,245.739761 141.302689,247.466782 142.922546,248.294983 
	C141.847366,249.720688 140.878174,251.249176 139.644485,252.521133 
	C139.155777,253.024963 138.079453,252.958847 136.853027,253.190125 
z"/>
<path fill="#E7C5A6" opacity="1.000000" stroke="none" 
	d="
M131.895844,234.032013 
	C132.982697,232.167267 133.996872,230.625244 135.262863,229.329193 
	C135.452927,229.134567 137.516327,230.078751 137.523895,230.516678 
	C137.556396,232.399139 137.391830,234.374496 136.783112,236.137909 
	C136.509903,236.929367 134.444580,237.967834 134.191635,237.747482 
	C133.211426,236.893402 132.633011,235.578171 131.895844,234.032013 
z"/>
<path fill="#E7C5A6" opacity="1.000000" stroke="none" 
	d="
M370.135925,235.232361 
	C370.925995,232.508057 372.365265,232.033630 373.366058,234.317581 
	C374.093384,235.977432 373.701447,238.127701 373.808563,240.059311 
	C373.111115,240.180771 372.413696,240.302216 371.716278,240.423676 
	C371.170807,238.828125 370.625336,237.232574 370.135925,235.232361 
z"/>
<path fill="#E7C5A6" opacity="1.000000" stroke="none" 
	d="
M299.123901,236.153992 
	C299.512360,234.668655 299.898621,233.561996 300.284882,232.455338 
	C300.837189,232.446396 301.389496,232.437439 301.941803,232.428497 
	C302.338684,234.610397 302.820862,236.783936 303.036804,238.983597 
	C303.067810,239.299393 301.814758,239.741287 301.155945,240.124817 
	C300.477875,238.927429 299.799805,237.730042 299.123901,236.153992 
z"/>
<path fill="#74533B" opacity="1.000000" stroke="none" 
	d="
M226.893127,262.968811 
	C226.053360,262.890411 225.464859,262.531097 224.757141,261.928772 
	C225.866318,260.967773 227.094727,260.249817 228.323135,259.531830 
	C227.930222,260.583862 227.537308,261.635895 226.893127,262.968811 
z"/>
<path fill="#74533B" opacity="1.000000" stroke="none" 
	d="
M235.762817,243.791504 
	C235.224030,244.023239 234.746811,243.972351 234.269592,243.921463 
	C234.379135,243.497894 234.488693,243.074326 234.598236,242.650757 
	C235.006943,242.936798 235.415665,243.222855 235.762817,243.791504 
z"/>
<path fill="#74533B" opacity="1.000000" stroke="none" 
	d="
M241.559814,228.044647 
	C241.193039,228.267273 240.828781,228.264877 240.466614,228.236191 
	C240.456558,228.235413 240.468765,227.953125 240.470581,227.802124 
	C240.834595,227.806747 241.198608,227.811371 241.559814,228.044647 
z"/>
<path fill="#74533B" opacity="1.000000" stroke="none" 
	d="
M237.463470,243.522385 
	C237.440399,243.479599 237.486557,243.565170 237.463470,243.522385 
z"/>
<path fill="#74533B" opacity="1.000000" stroke="none" 
	d="
M223.462280,248.524017 
	C223.438324,248.479996 223.486252,248.568054 223.462280,248.524017 
z"/>
<path fill="#F3D2B0" opacity="1.000000" stroke="none" 
	d="
M199.796890,239.451508 
	C199.794952,236.960632 199.894806,234.916702 199.960724,232.434723 
	C201.033356,231.399597 202.139908,230.802505 203.783508,230.436829 
	C205.838516,232.163315 207.356491,233.658401 208.874466,235.153488 
	C208.874466,235.153488 208.907501,235.035629 208.942032,235.430344 
	C210.034317,238.550278 211.092072,241.275482 212.149841,244.000687 
	C212.120804,244.446060 212.091766,244.891449 212.040024,246.032532 
	C211.975662,247.472809 211.934021,248.217392 211.892380,248.961975 
	C211.328934,249.950989 211.003922,251.350739 210.153061,251.844666 
	C208.302460,252.918961 206.059128,254.348526 204.214828,254.067490 
	C202.801041,253.852097 201.086853,251.393112 200.686752,249.659515 
	C199.960510,246.512802 200.112961,243.163315 199.796890,239.451508 
z"/>
<path fill="#73523A" opacity="1.000000" stroke="none" 
	d="
M212.483704,243.917114 
	C211.092072,241.275482 210.034317,238.550278 208.898682,235.473541 
	C213.108597,236.714111 214.306015,239.324066 212.483704,243.917114 
z"/>
<path fill="#73523A" opacity="1.000000" stroke="none" 
	d="
M208.912476,234.741821 
	C207.356491,233.658401 205.838516,232.163315 204.124619,230.417877 
	C208.228409,229.407501 208.613068,229.726349 208.912476,234.741821 
z"/>
<path fill="#75543B" opacity="1.000000" stroke="none" 
	d="
M218.658875,257.018005 
	C218.063934,258.122101 217.089294,259.228546 215.816040,260.382111 
	C216.438019,259.292938 217.358597,258.156647 218.658875,257.018005 
z"/>
<path fill="#73523A" opacity="1.000000" stroke="none" 
	d="
M212.220581,248.923813 
	C211.934021,248.217392 211.975662,247.472809 212.097382,246.363342 
	C212.301224,246.960861 212.425003,247.923264 212.220581,248.923813 
z"/>
</svg>